<svg width="172.9" height="28.001" viewBox="0 0 172.9 28.001" xmlns="http://www.w3.org/2000/svg"><g id="svgGroup" stroke-linecap="round" fill-rule="evenodd" font-size="9pt" stroke="#000" stroke-width="0.25mm" fill="#000" style="stroke:#000;stroke-width:0.25mm;fill:#000"><path d="M 21.05 27.55 A 71.85 71.85 0 0 0 23.454 22.658 A 59.115 59.115 0 0 0 24.625 19.825 A 93.12 93.12 0 0 1 27.67 12.775 A 101.697 101.697 0 0 1 27.9 12.3 A 3.795 3.795 0 0 1 28.376 11.614 A 2.662 2.662 0 0 1 29.3 10.925 A 4.576 4.576 0 0 1 30.176 10.635 A 3.643 3.643 0 0 1 30.95 10.55 Q 31.6 10.55 32.1 10.7 A 3.156 3.156 0 0 1 32.012 10.886 Q 31.86 11.183 31.538 11.722 A 43.777 43.777 0 0 1 31.325 12.075 A 43.007 43.007 0 0 0 30.681 13.169 A 58.624 58.624 0 0 0 30 14.4 A 84.346 84.346 0 0 0 29.719 14.911 Q 29.25 15.769 28.5 17.175 Q 27.5 19.05 26.65 21.05 A 27.245 27.245 0 0 0 26.906 20.731 Q 27.316 20.215 27.98 19.343 A 187.136 187.136 0 0 0 28.05 19.25 A 56.737 56.737 0 0 1 29.075 17.944 A 77.49 77.49 0 0 1 30.25 16.525 Q 31.5 15.05 32.875 13.675 Q 34.25 12.3 35.575 11.425 Q 36.9 10.55 37.95 10.55 Q 38.75 10.55 39.35 11.05 Q 39.95 11.55 39.95 12.4 Q 39.95 13.644 38.91 15.309 A 11.828 11.828 0 0 1 38.9 15.325 Q 37.85 17 36.8 18.6 Q 36.6 18.9 36.075 19.75 A 43.39 43.39 0 0 0 35.531 20.656 A 59.314 59.314 0 0 0 34.95 21.675 Q 34.35 22.75 33.925 23.725 A 8.396 8.396 0 0 0 33.739 24.186 Q 33.557 24.683 33.513 25.041 A 1.747 1.747 0 0 0 33.5 25.25 A 0.982 0.982 0 0 0 33.519 25.454 Q 33.584 25.755 33.862 25.794 A 0.632 0.632 0 0 0 33.95 25.8 A 2.725 2.725 0 0 0 34.934 25.607 Q 35.299 25.466 35.674 25.223 A 5.347 5.347 0 0 0 35.925 25.05 A 15.529 15.529 0 0 0 37.661 23.565 A 17.327 17.327 0 0 0 37.9 23.325 Q 38.75 22.453 39.28 21.841 A 16.666 16.666 0 0 0 39.4 21.7 A 29.351 29.351 0 0 0 40.048 20.97 A 23.918 23.918 0 0 0 40.4 20.55 A 29.424 29.424 0 0 1 41.286 19.516 A 27.559 27.559 0 0 1 41.3 19.5 Q 41.45 19.35 41.55 19.35 A 0.275 0.275 0 0 1 41.707 19.394 Q 41.815 19.466 41.841 19.66 A 1.039 1.039 0 0 1 41.85 19.8 A 0.739 0.739 0 0 1 41.805 20.063 A 0.664 0.664 0 0 1 41.65 20.3 Q 41.1 20.95 40.55 21.625 Q 40 22.3 39.4 22.95 Q 38.85 23.6 38.275 24.225 Q 37.7 24.85 37.1 25.4 Q 34.95 27.4 33.1 27.4 A 3.226 3.226 0 0 1 32.51 27.35 Q 31.74 27.207 31.425 26.65 Q 31.025 25.944 31.001 24.928 A 5.537 5.537 0 0 1 31 24.8 Q 31 23.6 31.65 22.2 A 22.319 22.319 0 0 1 32.58 20.421 A 27.062 27.062 0 0 1 33.25 19.325 Q 34.2 17.85 35.175 16.45 Q 36.085 15.143 36.712 14.032 A 21.094 21.094 0 0 0 36.8 13.875 Q 37.416 12.762 37.448 11.985 A 2.044 2.044 0 0 0 37.45 11.9 Q 37.45 11.616 37.136 11.601 A 0.754 0.754 0 0 0 37.1 11.6 A 0.48 0.48 0 0 0 36.935 11.637 Q 36.68 11.735 36.224 12.085 A 10.756 10.756 0 0 0 35.925 12.325 A 26.998 26.998 0 0 0 35.019 13.113 A 36.775 36.775 0 0 0 34.05 14.025 A 107.599 107.599 0 0 0 33.081 14.981 A 91.686 91.686 0 0 0 32.175 15.9 A 39.07 39.07 0 0 0 31.776 16.316 Q 31.226 16.899 31 17.2 A 38.365 38.365 0 0 0 28.649 20.004 A 41.807 41.807 0 0 0 28.575 20.1 A 176.167 176.167 0 0 0 26.883 22.369 A 155.418 155.418 0 0 0 26.35 23.1 A 14.5 14.5 0 0 0 25.328 24.771 A 13.407 13.407 0 0 0 25.3 24.825 A 39.796 39.796 0 0 1 24.634 26.064 A 46.843 46.843 0 0 1 24.3 26.65 A 1.259 1.259 0 0 1 24.108 26.915 A 0.866 0.866 0 0 1 23.625 27.175 Q 23.2 27.25 22.5 27.3 A 17.138 17.138 0 0 0 22.263 27.302 Q 21.925 27.306 21.7 27.325 A 1.264 1.264 0 0 0 21.41 27.386 Q 21.281 27.429 21.143 27.5 A 2.396 2.396 0 0 0 21.05 27.55 Z M 40.2 26.65 A 1.884 1.884 0 0 0 40.96 27.197 Q 41.572 27.45 42.5 27.45 A 4.77 4.77 0 0 0 44.086 27.179 A 5.717 5.717 0 0 0 45.55 26.4 Q 47 25.35 48.275 23.775 A 35.255 35.255 0 0 0 48.609 23.356 A 31.601 31.601 0 0 0 50.55 20.6 Q 50.35 21.2 50.125 21.75 A 6.058 6.058 0 0 0 50.097 21.819 A 5.468 5.468 0 0 0 49.8 22.85 A 11.112 11.112 0 0 0 49.711 23.174 Q 49.587 23.652 49.522 24.088 A 6.195 6.195 0 0 0 49.45 25 A 4.55 4.55 0 0 0 49.49 25.628 Q 49.599 26.406 50 26.825 Q 50.55 27.4 51.35 27.4 A 3.27 3.27 0 0 0 51.456 27.399 Q 53.213 27.342 55.3 25.4 Q 55.9 24.85 56.475 24.225 Q 57.05 23.6 57.6 22.95 Q 58.2 22.3 58.75 21.625 Q 59.3 20.95 59.85 20.3 Q 60.05 20.1 60.05 19.85 A 1.039 1.039 0 0 0 60.041 19.71 Q 60.015 19.516 59.907 19.444 A 0.275 0.275 0 0 0 59.75 19.4 Q 59.65 19.4 59.5 19.55 Q 59.1 20.1 58.65 20.6 Q 58.2 21.1 57.65 21.65 A 25.716 25.716 0 0 1 57.531 21.788 A 27.951 27.951 0 0 1 55.575 23.8 A 13.296 13.296 0 0 1 55.435 23.93 Q 54.381 24.885 53.35 25.4 Q 52.65 25.8 52.3 25.8 A 0.7 0.7 0 0 1 52.239 25.798 Q 51.895 25.767 51.821 25.387 A 1.239 1.239 0 0 1 51.8 25.15 A 2.075 2.075 0 0 1 51.824 24.847 Q 51.87 24.541 52 24.15 Q 52.2 23.55 52.5 22.85 Q 53.05 21.6 53.775 20.25 Q 54.228 19.406 54.613 18.709 A 96.134 96.134 0 0 1 55.05 17.925 A 84.305 84.305 0 0 0 55.181 17.692 Q 55.54 17.051 55.591 16.927 A 0.097 0.097 0 0 0 55.6 16.9 A 1.185 1.185 0 0 0 55.647 16.795 Q 55.772 16.467 55.579 16.287 A 0.546 0.546 0 0 0 55.45 16.2 Q 55.05 16 54.45 16 Q 53.95 16 53.475 16.15 Q 53.186 16.242 52.998 16.37 A 0.911 0.911 0 0 0 52.8 16.55 Q 52.688 16.691 52.567 16.863 A 8.945 8.945 0 0 0 52.375 17.15 Q 52.15 17.5 51.9 17.9 A 68.987 68.987 0 0 0 51.571 18.283 Q 50.992 18.961 50.15 19.975 A 51.422 51.422 0 0 1 49.589 20.639 A 57.594 57.594 0 0 1 47.775 22.65 Q 46.5 24 45.3 24.95 A 16.522 16.522 0 0 1 45.275 24.969 Q 44.093 25.861 43.325 26.107 A 1.743 1.743 0 0 1 42.8 26.2 Q 42.205 26.2 42.082 25.634 A 1.578 1.578 0 0 1 42.05 25.3 A 3.067 3.067 0 0 1 42.06 25.062 Q 42.085 24.739 42.175 24.325 Q 42.253 23.966 42.419 23.538 A 8.839 8.839 0 0 1 42.65 23 A 14.694 14.694 0 0 1 42.934 22.356 Q 43.273 21.634 43.728 20.849 A 28.386 28.386 0 0 1 44.75 19.225 Q 46.15 17.15 47.85 15.35 A 26.692 26.692 0 0 1 48.873 14.349 A 22.15 22.15 0 0 1 51 12.6 A 8.621 8.621 0 0 1 51.886 12.037 Q 52.371 11.771 52.82 11.626 A 3.343 3.343 0 0 1 53.85 11.45 A 1.972 1.972 0 0 1 54.843 11.699 Q 55.549 12.101 55.95 13.15 A 1.648 1.648 0 0 0 55.997 13.275 Q 56.052 13.404 56.122 13.498 A 0.571 0.571 0 0 0 56.6 13.75 A 0.926 0.926 0 0 0 56.762 13.737 Q 57.131 13.671 57.221 13.283 A 1.259 1.259 0 0 0 57.25 13 Q 57.25 12.75 57.075 12.425 A 1.459 1.459 0 0 0 56.932 12.211 Q 56.84 12.096 56.716 11.977 A 3.551 3.551 0 0 0 56.45 11.75 A 6.87 6.87 0 0 0 55.768 11.247 A 5.382 5.382 0 0 0 54.6 10.675 Q 53.65 10.35 52.65 10.35 Q 50.75 10.35 48.675 11.575 A 16.393 16.393 0 0 0 47.273 12.505 A 19.223 19.223 0 0 0 44.75 14.75 A 28.679 28.679 0 0 0 44.521 14.995 A 26.063 26.063 0 0 0 41.55 18.85 Q 41 19.8 40.275 21.5 A 9.816 9.816 0 0 0 39.767 23 A 7.101 7.101 0 0 0 39.55 24.7 A 3.774 3.774 0 0 0 39.569 25.086 A 2.891 2.891 0 0 0 40.2 26.65 Z M 153.05 26.65 A 1.884 1.884 0 0 0 153.81 27.197 Q 154.422 27.45 155.35 27.45 A 4.77 4.77 0 0 0 156.936 27.179 A 5.717 5.717 0 0 0 158.4 26.4 Q 159.85 25.35 161.125 23.775 A 35.255 35.255 0 0 0 161.459 23.356 A 31.601 31.601 0 0 0 163.4 20.6 Q 163.2 21.2 162.975 21.75 A 6.058 6.058 0 0 0 162.947 21.819 A 5.468 5.468 0 0 0 162.65 22.85 A 11.112 11.112 0 0 0 162.561 23.174 Q 162.437 23.652 162.372 24.088 A 6.195 6.195 0 0 0 162.3 25 A 4.55 4.55 0 0 0 162.34 25.628 Q 162.449 26.406 162.85 26.825 Q 163.4 27.4 164.2 27.4 A 3.27 3.27 0 0 0 164.306 27.399 Q 166.063 27.342 168.15 25.4 Q 168.75 24.85 169.325 24.225 Q 169.9 23.6 170.45 22.95 Q 171.05 22.3 171.6 21.625 Q 172.15 20.95 172.7 20.3 Q 172.9 20.1 172.9 19.85 A 1.039 1.039 0 0 0 172.891 19.71 Q 172.865 19.516 172.757 19.444 A 0.275 0.275 0 0 0 172.6 19.4 Q 172.5 19.4 172.35 19.55 Q 171.95 20.1 171.5 20.6 Q 171.05 21.1 170.5 21.65 A 25.716 25.716 0 0 1 170.381 21.788 A 27.951 27.951 0 0 1 168.425 23.8 A 13.296 13.296 0 0 1 168.285 23.93 Q 167.231 24.885 166.2 25.4 Q 165.5 25.8 165.15 25.8 A 0.7 0.7 0 0 1 165.089 25.798 Q 164.745 25.767 164.671 25.387 A 1.239 1.239 0 0 1 164.65 25.15 A 2.075 2.075 0 0 1 164.674 24.847 Q 164.72 24.541 164.85 24.15 Q 165.05 23.55 165.35 22.85 Q 165.9 21.6 166.625 20.25 Q 167.078 19.406 167.463 18.709 A 96.134 96.134 0 0 1 167.9 17.925 A 84.305 84.305 0 0 0 168.031 17.692 Q 168.39 17.051 168.441 16.927 A 0.097 0.097 0 0 0 168.45 16.9 A 1.185 1.185 0 0 0 168.497 16.795 Q 168.622 16.467 168.429 16.287 A 0.546 0.546 0 0 0 168.3 16.2 Q 167.9 16 167.3 16 Q 166.8 16 166.325 16.15 Q 166.036 16.242 165.848 16.37 A 0.911 0.911 0 0 0 165.65 16.55 Q 165.538 16.691 165.417 16.863 A 8.945 8.945 0 0 0 165.225 17.15 Q 165 17.5 164.75 17.9 A 68.987 68.987 0 0 0 164.421 18.283 Q 163.842 18.961 163 19.975 A 51.422 51.422 0 0 1 162.439 20.639 A 57.594 57.594 0 0 1 160.625 22.65 Q 159.35 24 158.15 24.95 A 16.522 16.522 0 0 1 158.125 24.969 Q 156.943 25.861 156.175 26.107 A 1.743 1.743 0 0 1 155.65 26.2 Q 155.055 26.2 154.932 25.634 A 1.578 1.578 0 0 1 154.9 25.3 A 3.067 3.067 0 0 1 154.91 25.062 Q 154.935 24.739 155.025 24.325 Q 155.103 23.966 155.269 23.538 A 8.839 8.839 0 0 1 155.5 23 A 14.694 14.694 0 0 1 155.784 22.356 Q 156.123 21.634 156.578 20.849 A 28.386 28.386 0 0 1 157.6 19.225 Q 159 17.15 160.7 15.35 A 26.692 26.692 0 0 1 161.723 14.349 A 22.15 22.15 0 0 1 163.85 12.6 A 8.621 8.621 0 0 1 164.736 12.037 Q 165.221 11.771 165.67 11.626 A 3.343 3.343 0 0 1 166.7 11.45 A 1.972 1.972 0 0 1 167.693 11.699 Q 168.399 12.101 168.8 13.15 A 1.648 1.648 0 0 0 168.847 13.275 Q 168.902 13.404 168.972 13.498 A 0.571 0.571 0 0 0 169.45 13.75 A 0.926 0.926 0 0 0 169.612 13.737 Q 169.981 13.671 170.071 13.283 A 1.259 1.259 0 0 0 170.1 13 Q 170.1 12.75 169.925 12.425 A 1.459 1.459 0 0 0 169.782 12.211 Q 169.69 12.096 169.566 11.977 A 3.551 3.551 0 0 0 169.3 11.75 A 6.87 6.87 0 0 0 168.618 11.247 A 5.382 5.382 0 0 0 167.45 10.675 Q 166.5 10.35 165.5 10.35 Q 163.6 10.35 161.525 11.575 A 16.393 16.393 0 0 0 160.123 12.505 A 19.223 19.223 0 0 0 157.6 14.75 A 28.679 28.679 0 0 0 157.371 14.995 A 26.063 26.063 0 0 0 154.4 18.85 Q 153.85 19.8 153.125 21.5 A 9.816 9.816 0 0 0 152.617 23 A 7.101 7.101 0 0 0 152.4 24.7 A 3.774 3.774 0 0 0 152.419 25.086 A 2.891 2.891 0 0 0 153.05 26.65 Z M 1.664 27.522 A 3.484 3.484 0 0 0 2.25 27.7 Q 2.513 26.913 2.99 25.899 A 31.205 31.205 0 0 1 3.55 24.775 A 29.541 29.541 0 0 1 4.239 23.527 A 24.546 24.546 0 0 1 5.45 21.65 A 6.327 6.327 0 0 1 5.469 21.643 Q 6.624 21.195 9.475 20.6 A 22.646 22.646 0 0 1 9.742 20.546 Q 11.645 20.173 14.362 19.964 A 80.544 80.544 0 0 1 17.2 19.8 A 11.004 11.004 0 0 0 16.756 21.496 A 13.522 13.522 0 0 0 16.55 23.9 A 9.705 9.705 0 0 0 16.554 24.191 Q 16.595 25.555 17.025 26.55 Q 17.451 27.536 18.378 27.438 A 1.91 1.91 0 0 0 18.6 27.4 A 4.55 4.55 0 0 1 18.577 27.274 A 5.125 5.125 0 0 1 18.525 26.875 A 4.934 4.934 0 0 1 18.522 26.838 Q 18.511 26.708 18.506 26.562 A 8.395 8.395 0 0 1 18.5 26.25 Q 18.5 25.2 18.7 23.925 A 65.202 65.202 0 0 1 18.854 22.99 A 54.705 54.705 0 0 1 19.125 21.525 Q 19.294 20.681 19.42 20.161 A 11.723 11.723 0 0 1 19.5 19.85 Q 20.35 19.75 21.1 20.1 L 21.85 20.45 A 1.556 1.556 0 0 0 21.829 20.193 Q 21.734 19.63 21.225 19.1 A 2.514 2.514 0 0 0 20.843 18.772 A 1.717 1.717 0 0 0 19.85 18.45 A 71.708 71.708 0 0 1 20.092 17.493 A 79.874 79.874 0 0 1 21.675 12.2 A 68.416 68.416 0 0 1 22.64 9.51 A 54.113 54.113 0 0 1 23.95 6.375 A 51.616 51.616 0 0 1 24.18 5.88 Q 24.874 4.401 25.482 3.368 A 14.182 14.182 0 0 1 26.1 2.4 L 25.625 1.8 A 5.176 5.176 0 0 0 25.522 1.674 Q 25.29 1.399 24.996 1.125 A 8.909 8.909 0 0 0 24.375 0.6 Q 23.6 0 22.6 0 Q 21.813 0 20.673 0.661 A 11.094 11.094 0 0 0 19.875 1.175 A 20.762 20.762 0 0 0 19.243 1.637 Q 18.537 2.174 17.78 2.835 A 39.268 39.268 0 0 0 16.225 4.275 A 79.682 79.682 0 0 0 15.234 5.258 A 91.689 91.689 0 0 0 12.225 8.45 Q 10.2 10.7 8.375 12.925 A 252.676 252.676 0 0 0 7.871 13.542 Q 6.357 15.4 5.175 16.925 A 129.08 129.08 0 0 0 5.125 16.989 Q 4.129 18.277 3.548 19.096 A 21.322 21.322 0 0 0 3.2 19.6 Q 1.75 19.6 0.75 19.15 Q 0.55 19 0.3 19 A 0.424 0.424 0 0 0 0.227 19.006 Q 0.055 19.036 0.013 19.219 A 0.595 0.595 0 0 0 0 19.35 A 0.778 0.778 0 0 0 0.024 19.537 Q 0.09 19.804 0.338 20.124 A 3.783 3.783 0 0 0 0.6 20.425 A 1.958 1.958 0 0 0 0.796 20.604 Q 1.137 20.873 1.603 20.998 A 3.281 3.281 0 0 0 2.3 21.1 Q 1.922 21.513 1.473 22.197 A 18.466 18.466 0 0 0 1.05 22.875 A 6.558 6.558 0 0 0 1.012 22.939 Q 0.733 23.421 0.572 23.889 A 3.855 3.855 0 0 0 0.35 25.15 Q 0.35 26 0.725 26.725 A 1.518 1.518 0 0 0 1.124 27.21 Q 1.35 27.393 1.664 27.522 Z M 107.8 11.5 L 106.4 13.75 A 412.314 412.314 0 0 1 104.223 16.714 A 454.978 454.978 0 0 1 103.9 17.15 A 102.926 102.926 0 0 1 102.625 18.831 A 83.854 83.854 0 0 1 101.4 20.375 A 213.562 213.562 0 0 1 100.549 21.415 Q 100.215 21.82 99.915 22.179 A 102.96 102.96 0 0 1 99.35 22.85 A 0.676 0.676 0 0 1 99.259 22.928 Q 99.204 22.966 99.149 22.984 A 0.314 0.314 0 0 1 99.05 23 A 0.424 0.424 0 0 1 98.715 22.841 A 0.672 0.672 0 0 1 98.65 22.75 Q 98.53 22.549 98.635 22.381 A 0.458 0.458 0 0 1 98.7 22.3 Q 100.65 20.1 102.45 17.8 Q 104.25 15.5 105.8 12.9 L 107 10.85 A 1.448 1.448 0 0 1 106.89 10.757 Q 106.716 10.596 106.436 10.272 A 14.543 14.543 0 0 1 106.375 10.2 Q 105.95 9.7 105.575 9.075 Q 105.202 8.454 105.2 8.005 A 1.073 1.073 0 0 1 105.2 8 A 0.932 0.932 0 0 1 105.238 7.726 A 0.715 0.715 0 0 1 105.475 7.375 Q 105.708 7.184 106.248 7.155 A 3.785 3.785 0 0 1 106.45 7.15 A 1.297 1.297 0 0 1 107.649 7.932 Q 108.127 8.84 108.1 10.8 Q 108.8 11.35 109.65 11.65 A 1059.485 1059.485 0 0 1 110.883 12.086 A 920.957 920.957 0 0 1 111.275 12.225 A 3.805 3.805 0 0 1 111.981 12.556 A 3.013 3.013 0 0 1 112.55 13 A 1.569 1.569 0 0 1 112.925 13.625 Q 113.05 14 113.05 14.5 A 3.749 3.749 0 0 1 112.972 15.236 Q 112.857 15.807 112.575 16.475 Q 112.1 17.6 111.45 18.45 A 58.283 58.283 0 0 0 111.013 19.055 Q 110.628 19.594 110.175 20.25 Q 109.45 21.3 108.8 22.35 A 13.447 13.447 0 0 0 108.362 23.11 Q 108.149 23.51 107.995 23.876 A 6.874 6.874 0 0 0 107.85 24.25 Q 107.664 24.733 107.617 25.022 A 1.107 1.107 0 0 0 107.6 25.2 A 1.021 1.021 0 0 0 107.628 25.45 Q 107.729 25.85 108.2 25.85 A 1.741 1.741 0 0 0 108.618 25.795 Q 109.005 25.699 109.484 25.437 A 6.063 6.063 0 0 0 109.55 25.4 A 8.661 8.661 0 0 0 110.551 24.78 Q 111.037 24.434 111.539 23.992 A 14.944 14.944 0 0 0 111.725 23.825 Q 112.85 22.8 113.8 21.7 A 20.482 20.482 0 0 0 114.448 21.022 A 17.156 17.156 0 0 0 114.8 20.625 Q 115.25 20.1 115.65 19.55 Q 115.8 19.4 115.9 19.4 A 0.275 0.275 0 0 1 116.057 19.444 Q 116.165 19.516 116.191 19.71 A 1.039 1.039 0 0 1 116.2 19.85 Q 116.2 20.1 116 20.3 A 138.04 138.04 0 0 0 114.397 22.246 A 154.524 154.524 0 0 0 113.85 22.925 A 19.618 19.618 0 0 1 111.578 25.331 A 18.194 18.194 0 0 1 111.5 25.4 A 14.444 14.444 0 0 1 110.874 25.871 Q 110.587 26.076 110.256 26.296 A 30.75 30.75 0 0 1 109.55 26.75 Q 108.353 27.498 107.205 27.5 A 3.557 3.557 0 0 1 107.2 27.5 A 2.286 2.286 0 0 1 106.276 27.317 A 2.192 2.192 0 0 1 105.6 26.85 A 1.991 1.991 0 0 1 105.59 26.84 Q 104.95 26.191 104.95 25 A 5.34 5.34 0 0 1 104.989 24.342 A 4.432 4.432 0 0 1 105.05 23.975 A 5.411 5.411 0 0 1 105.147 23.584 Q 105.216 23.347 105.3 23.15 Q 105.55 22.4 106.25 21.2 A 65.451 65.451 0 0 1 107.184 19.651 A 78.854 78.854 0 0 1 107.8 18.675 Q 108.531 17.537 109.076 16.601 A 38.629 38.629 0 0 0 109.25 16.3 Q 110 15 110 14.05 A 1.953 1.953 0 0 0 109.815 13.191 Q 109.592 12.728 109.1 12.4 Q 108.75 12.15 108.4 11.925 A 8.945 8.945 0 0 1 108.113 11.733 Q 107.941 11.613 107.8 11.5 Z M 146.15 11.5 L 144.75 13.75 A 412.314 412.314 0 0 1 142.573 16.714 A 454.978 454.978 0 0 1 142.25 17.15 A 102.926 102.926 0 0 1 140.975 18.831 A 83.854 83.854 0 0 1 139.75 20.375 A 213.562 213.562 0 0 1 138.899 21.415 Q 138.565 21.82 138.265 22.179 A 102.96 102.96 0 0 1 137.7 22.85 A 0.676 0.676 0 0 1 137.609 22.928 Q 137.554 22.966 137.499 22.984 A 0.314 0.314 0 0 1 137.4 23 A 0.424 0.424 0 0 1 137.065 22.841 A 0.672 0.672 0 0 1 137 22.75 Q 136.88 22.549 136.985 22.381 A 0.458 0.458 0 0 1 137.05 22.3 Q 139 20.1 140.8 17.8 Q 142.6 15.5 144.15 12.9 L 145.35 10.85 A 1.448 1.448 0 0 1 145.24 10.757 Q 145.066 10.596 144.786 10.272 A 14.543 14.543 0 0 1 144.725 10.2 Q 144.3 9.7 143.925 9.075 Q 143.552 8.454 143.55 8.005 A 1.073 1.073 0 0 1 143.55 8 A 0.932 0.932 0 0 1 143.588 7.726 A 0.715 0.715 0 0 1 143.825 7.375 Q 144.058 7.184 144.598 7.155 A 3.785 3.785 0 0 1 144.8 7.15 A 1.297 1.297 0 0 1 145.999 7.932 Q 146.477 8.84 146.45 10.8 Q 147.15 11.35 148 11.65 A 1059.485 1059.485 0 0 1 149.233 12.086 A 920.957 920.957 0 0 1 149.625 12.225 A 3.805 3.805 0 0 1 150.331 12.556 A 3.013 3.013 0 0 1 150.9 13 A 1.569 1.569 0 0 1 151.275 13.625 Q 151.4 14 151.4 14.5 A 3.749 3.749 0 0 1 151.322 15.236 Q 151.207 15.807 150.925 16.475 Q 150.45 17.6 149.8 18.45 A 58.283 58.283 0 0 0 149.363 19.055 Q 148.978 19.594 148.525 20.25 Q 147.8 21.3 147.15 22.35 A 13.447 13.447 0 0 0 146.712 23.11 Q 146.499 23.51 146.345 23.876 A 6.874 6.874 0 0 0 146.2 24.25 Q 146.014 24.733 145.967 25.022 A 1.107 1.107 0 0 0 145.95 25.2 A 1.021 1.021 0 0 0 145.978 25.45 Q 146.079 25.85 146.55 25.85 A 1.741 1.741 0 0 0 146.968 25.795 Q 147.355 25.699 147.834 25.437 A 6.063 6.063 0 0 0 147.9 25.4 A 8.661 8.661 0 0 0 148.901 24.78 Q 149.387 24.434 149.889 23.992 A 14.944 14.944 0 0 0 150.075 23.825 Q 151.2 22.8 152.15 21.7 A 20.482 20.482 0 0 0 152.798 21.022 A 17.156 17.156 0 0 0 153.15 20.625 Q 153.6 20.1 154 19.55 Q 154.15 19.4 154.25 19.4 A 0.275 0.275 0 0 1 154.407 19.444 Q 154.515 19.516 154.541 19.71 A 1.039 1.039 0 0 1 154.55 19.85 Q 154.55 20.1 154.35 20.3 A 138.04 138.04 0 0 0 152.747 22.246 A 154.524 154.524 0 0 0 152.2 22.925 A 19.618 19.618 0 0 1 149.928 25.331 A 18.194 18.194 0 0 1 149.85 25.4 A 14.444 14.444 0 0 1 149.224 25.871 Q 148.937 26.076 148.606 26.296 A 30.75 30.75 0 0 1 147.9 26.75 Q 146.703 27.498 145.555 27.5 A 3.557 3.557 0 0 1 145.55 27.5 A 2.286 2.286 0 0 1 144.626 27.317 A 2.192 2.192 0 0 1 143.95 26.85 A 1.991 1.991 0 0 1 143.94 26.84 Q 143.3 26.191 143.3 25 A 5.34 5.34 0 0 1 143.339 24.342 A 4.432 4.432 0 0 1 143.4 23.975 A 5.411 5.411 0 0 1 143.497 23.584 Q 143.566 23.347 143.65 23.15 Q 143.9 22.4 144.6 21.2 A 65.451 65.451 0 0 1 145.534 19.651 A 78.854 78.854 0 0 1 146.15 18.675 Q 146.881 17.537 147.426 16.601 A 38.629 38.629 0 0 0 147.6 16.3 Q 148.35 15 148.35 14.05 A 1.953 1.953 0 0 0 148.165 13.191 Q 147.942 12.728 147.45 12.4 Q 147.1 12.15 146.75 11.925 A 8.945 8.945 0 0 1 146.463 11.733 Q 146.291 11.613 146.15 11.5 Z M 67.345 27.111 A 2.881 2.881 0 0 0 68.25 27.85 A 3.505 3.505 0 0 1 68.341 27.431 Q 68.463 26.983 68.723 26.336 A 22.992 22.992 0 0 1 69.025 25.625 Q 69.7 24.1 70.65 22.3 Q 71.25 21.1 71.925 19.875 A 272.347 272.347 0 0 1 72.009 19.722 A 250.044 250.044 0 0 1 73.25 17.5 Q 74.2 18.05 75.225 18.3 A 9.187 9.187 0 0 0 75.241 18.304 A 8.518 8.518 0 0 0 77.25 18.55 A 10.157 10.157 0 0 0 79.477 18.301 A 11.904 11.904 0 0 0 82.325 17.25 Q 84.85 15.95 86.9 13.9 A 21.95 21.95 0 0 0 88.212 12.47 A 17.854 17.854 0 0 0 90.175 9.625 Q 91.4 7.4 91.4 5.55 A 6.925 6.925 0 0 0 91.38 5.016 A 5.432 5.432 0 0 0 90.25 2.025 A 3.349 3.349 0 0 0 89.141 1.111 Q 88.556 0.806 87.796 0.667 A 7.763 7.763 0 0 0 86.4 0.55 A 12.514 12.514 0 0 0 85.203 0.61 A 15.985 15.985 0 0 0 83.6 0.85 A 61.4 61.4 0 0 0 82.844 1.006 A 68.772 68.772 0 0 0 80.5 1.55 Q 80.35 1.15 80.05 0.825 Q 79.844 0.602 79.496 0.532 A 1.759 1.759 0 0 0 79.15 0.5 Q 79.1 0.85 78.975 1.225 A 19.179 19.179 0 0 0 78.914 1.411 A 16.96 16.96 0 0 0 78.75 1.95 Q 77.45 2.3 76.125 2.55 A 26.814 26.814 0 0 1 75.754 2.618 A 24.011 24.011 0 0 1 73.55 2.9 A 2.736 2.736 0 0 1 73.53 2.974 A 2.418 2.418 0 0 1 73.425 3.275 Q 73.35 3.45 73.35 3.65 Q 73.35 4.15 73.8 4.5 Q 74.131 4.757 74.785 4.826 A 4.984 4.984 0 0 0 75.3 4.85 L 75.725 4.85 Q 75.95 4.85 76.15 4.8 A 14.589 14.589 0 0 1 76.348 4.777 A 13.136 13.136 0 0 1 76.925 4.725 A 3.989 3.989 0 0 0 77.126 4.707 A 4.57 4.57 0 0 0 77.7 4.6 Q 76.3 7.75 74.15 11.2 Q 72 14.65 69.95 18.05 A 31.687 31.687 0 0 1 69.791 18.308 Q 69.546 18.701 69.26 19.134 A 55.466 55.466 0 0 1 68.625 20.075 Q 67.85 21.2 67.275 22.375 A 7.329 7.329 0 0 0 67.243 22.442 Q 67.006 22.939 66.872 23.414 A 4.373 4.373 0 0 0 66.7 24.6 A 9.762 9.762 0 0 0 66.704 24.868 Q 66.725 25.664 66.881 26.21 A 2.42 2.42 0 0 0 67.1 26.75 A 2.776 2.776 0 0 0 67.345 27.111 Z M 89.28 27.852 A 5.153 5.153 0 0 0 90.55 28 Q 92.9 28 94.825 26.85 A 21.359 21.359 0 0 0 95.641 26.338 Q 96.288 25.911 96.82 25.485 A 10.566 10.566 0 0 0 97.85 24.55 Q 98.8 23.55 99.7 22.475 Q 100.6 21.4 101.5 20.3 Q 101.7 20.1 101.7 19.85 A 1.039 1.039 0 0 0 101.691 19.71 Q 101.665 19.516 101.557 19.444 A 0.275 0.275 0 0 0 101.4 19.4 Q 101.3 19.4 101.15 19.55 Q 100.75 20.1 100.3 20.625 A 45.317 45.317 0 0 1 100.072 20.889 A 50.549 50.549 0 0 1 99.35 21.7 L 98.175 22.875 Q 97.65 23.4 97.1 23.9 A 10.832 10.832 0 0 1 96.89 24.068 Q 96.357 24.482 95.45 25.1 Q 94.35 25.85 93.1 26.425 Q 91.85 27 90.75 27 Q 90.05 27 89.575 26.575 A 1.238 1.238 0 0 1 89.26 26.117 Q 89.175 25.912 89.136 25.654 A 3.318 3.318 0 0 1 89.1 25.15 A 4.805 4.805 0 0 1 89.102 25.019 A 4.138 4.138 0 0 1 89.125 24.675 A 4.969 4.969 0 0 1 89.147 24.503 A 5.942 5.942 0 0 1 89.2 24.2 A 19.483 19.483 0 0 1 89.313 23.631 A 24.017 24.017 0 0 1 89.45 23.025 A 19.374 19.374 0 0 1 89.459 22.986 A 21.069 21.069 0 0 1 89.8 21.75 A 21.977 21.977 0 0 0 91.672 21.242 A 18.085 18.085 0 0 0 95.325 19.625 A 14.23 14.23 0 0 0 97.435 18.103 A 17.616 17.616 0 0 0 99.75 15.65 A 7.534 7.534 0 0 0 99.824 15.555 Q 100.317 14.906 100.55 14.3 Q 100.8 13.65 100.8 13.15 Q 100.8 11.9 99.825 11.15 Q 98.85 10.4 97.5 10.4 Q 96.548 10.4 95.478 10.863 A 8.793 8.793 0 0 0 94.325 11.475 A 14.553 14.553 0 0 0 92.782 12.588 A 18.554 18.554 0 0 0 90.975 14.3 Q 89.35 16.05 88.2 18.15 A 7.405 7.405 0 0 0 88.194 18.161 Q 87.647 19.109 87.075 20.75 Q 86.5 22.4 86.5 23.9 Q 86.5 24.631 86.655 25.24 A 3.512 3.512 0 0 0 87.6 26.925 A 3.635 3.635 0 0 0 89.28 27.852 Z M 117.48 27.852 A 5.153 5.153 0 0 0 118.75 28 Q 121.1 28 123.025 26.85 A 21.359 21.359 0 0 0 123.841 26.338 Q 124.488 25.911 125.02 25.485 A 10.566 10.566 0 0 0 126.05 24.55 Q 127 23.55 127.9 22.475 Q 128.8 21.4 129.7 20.3 Q 129.9 20.1 129.9 19.85 A 1.039 1.039 0 0 0 129.891 19.71 Q 129.865 19.516 129.757 19.444 A 0.275 0.275 0 0 0 129.6 19.4 Q 129.5 19.4 129.35 19.55 Q 128.95 20.1 128.5 20.625 A 45.317 45.317 0 0 1 128.272 20.889 A 50.549 50.549 0 0 1 127.55 21.7 L 126.375 22.875 Q 125.85 23.4 125.3 23.9 A 10.832 10.832 0 0 1 125.09 24.068 Q 124.557 24.482 123.65 25.1 Q 122.55 25.85 121.3 26.425 Q 120.05 27 118.95 27 Q 118.25 27 117.775 26.575 A 1.238 1.238 0 0 1 117.46 26.117 Q 117.375 25.912 117.336 25.654 A 3.318 3.318 0 0 1 117.3 25.15 A 4.805 4.805 0 0 1 117.302 25.019 A 4.138 4.138 0 0 1 117.325 24.675 A 4.969 4.969 0 0 1 117.347 24.503 A 5.942 5.942 0 0 1 117.4 24.2 A 19.483 19.483 0 0 1 117.513 23.631 A 24.017 24.017 0 0 1 117.65 23.025 A 19.374 19.374 0 0 1 117.659 22.986 A 21.069 21.069 0 0 1 118 21.75 A 21.977 21.977 0 0 0 119.872 21.242 A 18.085 18.085 0 0 0 123.525 19.625 A 14.23 14.23 0 0 0 125.635 18.103 A 17.616 17.616 0 0 0 127.95 15.65 A 7.534 7.534 0 0 0 128.024 15.555 Q 128.517 14.906 128.75 14.3 Q 129 13.65 129 13.15 Q 129 11.9 128.025 11.15 Q 127.05 10.4 125.7 10.4 Q 124.748 10.4 123.678 10.863 A 8.793 8.793 0 0 0 122.525 11.475 A 14.553 14.553 0 0 0 120.982 12.588 A 18.554 18.554 0 0 0 119.175 14.3 Q 117.55 16.05 116.4 18.15 A 7.405 7.405 0 0 0 116.394 18.161 Q 115.847 19.109 115.275 20.75 Q 114.7 22.4 114.7 23.9 Q 114.7 24.631 114.855 25.24 A 3.512 3.512 0 0 0 115.8 26.925 A 3.635 3.635 0 0 0 117.48 27.852 Z M 131.1 27.25 Q 130 27.25 129.2 26.525 A 2.102 2.102 0 0 1 128.669 25.736 Q 128.408 25.086 128.4 24.111 A 7.536 7.536 0 0 1 128.4 24.05 Q 128.4 23.3 128.55 22.4 Q 129 20.05 130.025 17.9 A 48.138 48.138 0 0 1 130.912 16.129 Q 131.371 15.261 131.819 14.514 A 27.561 27.561 0 0 1 132.025 14.175 A 669.967 669.967 0 0 0 132.419 13.538 Q 133.066 12.491 133.3 12.1 A 1.183 1.183 0 0 1 133.531 11.794 Q 133.78 11.547 134.232 11.306 A 6.284 6.284 0 0 1 134.6 11.125 Q 135.626 10.661 136.318 10.65 A 2.097 2.097 0 0 1 136.35 10.65 A 1.331 1.331 0 0 1 136.562 10.665 Q 136.932 10.725 136.949 11.021 A 0.505 0.505 0 0 1 136.95 11.05 Q 136.95 11.4 136.7 11.7 Q 136.056 12.731 135.245 14.003 A 431.299 431.299 0 0 1 134.975 14.425 A 45.287 45.287 0 0 0 133.213 17.438 A 49.637 49.637 0 0 0 133.1 17.65 A 27.532 27.532 0 0 0 131.919 20.172 A 24.042 24.042 0 0 0 131.6 21 A 10.95 10.95 0 0 0 131.19 22.396 Q 131.024 23.154 131.003 23.852 A 6.659 6.659 0 0 0 131 24.05 A 3.327 3.327 0 0 0 131.033 24.53 Q 131.069 24.779 131.146 24.984 A 1.575 1.575 0 0 0 131.275 25.25 A 0.864 0.864 0 0 0 131.735 25.614 Q 131.972 25.7 132.3 25.7 A 2.056 2.056 0 0 0 132.935 25.591 Q 133.494 25.41 134.15 24.925 A 17.85 17.85 0 0 0 136.114 23.236 A 19.478 19.478 0 0 0 136.175 23.175 A 44.494 44.494 0 0 0 136.63 22.714 Q 137.065 22.266 137.36 21.931 A 10.025 10.025 0 0 0 137.6 21.65 A 67.215 67.215 0 0 1 138.336 20.853 A 60.013 60.013 0 0 1 138.575 20.6 Q 139.05 20.1 139.45 19.55 Q 139.6 19.4 139.7 19.4 A 0.275 0.275 0 0 1 139.857 19.444 Q 139.965 19.516 139.991 19.71 A 1.039 1.039 0 0 1 140 19.85 A 0.595 0.595 0 0 1 139.868 20.223 A 0.818 0.818 0 0 1 139.8 20.3 Q 139.25 20.95 138.7 21.625 Q 138.15 22.3 137.55 22.95 A 28.932 28.932 0 0 1 136.472 24.157 A 35.13 35.13 0 0 1 135.75 24.9 A 10.766 10.766 0 0 1 133.779 26.468 A 10.016 10.016 0 0 1 133.6 26.575 Q 132.45 27.25 131.1 27.25 Z M 8.385 19.193 A 61.179 61.179 0 0 0 6.85 19.45 A 16.353 16.353 0 0 1 7.08 19.079 Q 7.488 18.439 8.102 17.585 A 62.405 62.405 0 0 1 8.675 16.8 A 75.772 75.772 0 0 1 8.754 16.694 Q 9.952 15.086 11.525 13.15 Q 13.15 11.15 14.925 9.15 A 84.667 84.667 0 0 1 16.242 7.699 A 69.874 69.874 0 0 1 18.375 5.5 Q 20.05 3.85 21.375 2.825 Q 22.317 2.097 22.968 1.886 A 1.579 1.579 0 0 1 23.45 1.8 A 0.807 0.807 0 0 1 23.603 1.814 A 0.494 0.494 0 0 1 23.95 2.05 Q 22.55 4.4 21.45 6.95 A 71.893 71.893 0 0 0 20.671 8.828 A 58.788 58.788 0 0 0 19.575 11.8 A 135.008 135.008 0 0 0 19.118 13.182 Q 18.902 13.844 18.714 14.451 A 74.973 74.973 0 0 0 18.3 15.825 A 2152.12 2152.12 0 0 0 18.223 16.092 Q 17.903 17.195 17.719 17.836 A 254.357 254.357 0 0 0 17.6 18.25 Q 16.55 18.2 14.65 18.4 Q 12.75 18.6 10.625 18.875 A 102.217 102.217 0 0 0 10.037 18.953 Q 9.168 19.071 8.385 19.193 Z M 74.55 15.5 L 73.75 16.65 A 7.674 7.674 0 0 0 74.214 16.664 Q 75.693 16.664 77.525 16.125 A 22.689 22.689 0 0 0 80.482 15.018 A 27.02 27.02 0 0 0 81.85 14.35 Q 84.05 13.2 85.925 11.65 A 17.199 17.199 0 0 0 87.713 9.954 A 13.508 13.508 0 0 0 88.95 8.375 A 7.561 7.561 0 0 0 89.705 6.951 A 5.438 5.438 0 0 0 90.1 4.95 Q 90.1 3 86.6 3 Q 85.15 3 83.6 3.3 Q 82.05 3.6 80.55 3.95 A 6.404 6.404 0 0 1 80.374 4.596 Q 80.155 5.275 79.741 6.175 A 24.962 24.962 0 0 1 79.6 6.475 A 53 53 0 0 1 78.794 8.094 A 65.217 65.217 0 0 1 77.875 9.8 A 166.962 166.962 0 0 1 76.919 11.494 A 138.777 138.777 0 0 1 76 13.075 A 330.32 330.32 0 0 1 75.572 13.799 Q 74.963 14.825 74.55 15.5 Z M 90.1 21.1 A 16.938 16.938 0 0 0 91.135 20.617 Q 91.698 20.333 92.324 19.974 A 35.345 35.345 0 0 0 93.125 19.5 A 21.543 21.543 0 0 0 95.862 17.513 A 24.555 24.555 0 0 0 96.475 16.975 A 15.445 15.445 0 0 0 98.476 14.79 A 13.519 13.519 0 0 0 99.15 13.8 A 2.862 2.862 0 0 0 99.342 13.45 Q 99.5 13.103 99.5 12.8 Q 99.5 12.1 98.7 12.1 Q 98.161 12.1 97.383 12.484 A 6.413 6.413 0 0 0 97.35 12.5 Q 94.85 13.85 93.05 16.15 Q 91.25 18.45 90.1 21.1 Z M 118.3 21.1 A 16.938 16.938 0 0 0 119.335 20.617 Q 119.898 20.333 120.524 19.974 A 35.345 35.345 0 0 0 121.325 19.5 A 21.543 21.543 0 0 0 124.062 17.513 A 24.555 24.555 0 0 0 124.675 16.975 A 15.445 15.445 0 0 0 126.676 14.79 A 13.519 13.519 0 0 0 127.35 13.8 A 2.862 2.862 0 0 0 127.542 13.45 Q 127.7 13.103 127.7 12.8 Q 127.7 12.1 126.9 12.1 Q 126.361 12.1 125.583 12.484 A 6.413 6.413 0 0 0 125.55 12.5 Q 123.05 13.85 121.25 16.15 Q 119.45 18.45 118.3 21.1 Z M 137.507 7.428 A 1.317 1.317 0 0 0 137.95 7.5 Q 138.6 7.5 139.075 7.05 Q 139.55 6.6 139.7 5.95 Q 139.8 5.3 139.425 4.875 Q 139.05 4.45 138.4 4.45 A 1.507 1.507 0 0 0 137.663 4.64 A 1.952 1.952 0 0 0 137.225 4.975 A 2.064 2.064 0 0 0 137.209 4.992 A 1.734 1.734 0 0 0 136.7 6.25 Q 136.7 6.75 137.05 7.125 A 1.14 1.14 0 0 0 137.507 7.428 Z" vector-effect="non-scaling-stroke"/></g></svg>